<?xml version="1.0" encoding="UTF-8" standalone="no"?> <svg width="64" height="64" viewBox="0 0 64 64" fill="none" xmlns="http://www.w3.org/2000/svg">
<path d="M32 2C18.67 2 7.82996 13.36 7.82996 27.33C7.82996 40.96 29.73 60.66 30.66 61.49C31.0262 61.8161 31.4995 61.9963 31.99 61.9963C32.4804 61.9963 32.9537 61.8161 33.32 61.49C34.25 60.66 56.15 40.96 56.15 27.33C56.17 13.36 45.33 2 32 2Z" fill="url(#paint0_linear)"/>
<path d="M32 14.8899C29.8123 14.8899 27.6736 15.5382 25.854 16.7528C24.0344 17.9674 22.6155 19.694 21.7765 21.7144C20.9375 23.7348 20.716 25.9586 21.1399 28.1049C21.5638 30.2511 22.6141 32.2237 24.1583 33.7734C25.7025 35.3232 27.6712 36.3806 29.8159 36.8123C31.9606 37.2439 34.1852 37.0304 36.2087 36.1987C38.2321 35.3669 39.9638 33.9543 41.1849 32.1391C42.4061 30.3239 43.0621 28.1876 43.07 25.9999C43.0739 24.5432 42.7906 23.1 42.2362 21.7529C41.6817 20.4058 40.8671 19.1812 39.8389 18.1493C38.8107 17.1174 37.5891 16.2983 36.244 15.739C34.8989 15.1798 33.4567 14.8912 32 14.8899Z" fill="url(#paint1_linear)"/>
<defs>
<linearGradient id="paint0_linear" x1="7.82996" y1="32" x2="56.17" y2="32" gradientUnits="userSpaceOnUse">
<stop stop-color="#2357FF"/>
<stop offset="0.38" stop-color="#1B6FF6"/>
<stop offset="1" stop-color="#0B9EE3"/>
</linearGradient>
<linearGradient id="paint1_linear" x1="20.93" y1="25.9499" x2="43.07" y2="25.9499" gradientUnits="userSpaceOnUse">
<stop stop-color="#0C90F2"/>
<stop offset="0.14" stop-color="#1092F2"/>
<stop offset="0.27" stop-color="#1C97F1"/>
<stop offset="0.4" stop-color="#2F9FF1"/>
<stop offset="0.53" stop-color="#4BABF0"/>
<stop offset="0.66" stop-color="#6EBBEE"/>
<stop offset="0.78" stop-color="#99CEED"/>
<stop offset="0.85" stop-color="#B3D9EC"/>
</linearGradient>
</defs>
</svg>
